# xmcd
#
# Track frame offsets:
#	150
#	12937
#	25447
#	35440
#	50070
#	61947
#	75130
#	89585
#	100000
#	110730
#
# Disc length: 1607
#
# Revision: 1
# Processed by: cddbd v1.5.1PL0 Copyright (c) Steve Scherf et al.
# Submitted via: dBpowerAMP V4.0
# Normalized: r0:TDELIM( - )
#
DISCID=7706450a
DTITLE=Various Artist - Real 60s Country Disc Two
DYEAR=1900
DGENRE=Country
TTITLE0=Bobby Bare - Detroit City
TTITLE1=Hank Snow - I've Been Everywhere
TTITLE2=George Hamilton IV - Abilene
TTITLE3=Lorne Greene - Ringo
TTITLE4=Skeeter Davis - The End Of The World
TTITLE5=Eddy Arnold and The Needmore Creek Singers - Molly
TTITLE6=Porter Wagoner - The Cold Hard Facts Of Life
TTITLE7=Connie Smith - Once A Day
TTITLE8=John D. Loudermilk - Blue Train
TTITLE9=Norma Jean - Go Cat Go
EXTD=
EXTT0=
EXTT1=
EXTT2=
EXTT3=
EXTT4=
EXTT5=
EXTT6=
EXTT7=
EXTT8=
EXTT9=
PLAYORDER=
